{
  "asset": {
    "version": "2.0",
    "generator": "NAU Engine self-authored asset readiness fixture"
  },
  "scene": 0,
  "scenes": [
    {
      "name": "NAU Island Impostor Kit Fixture Scene",
      "nodes": [0]
    }
  ],
  "nodes": [
    {
      "name": "NAU Island Impostor Kit Fixture",
      "mesh": 0
    }
  ],
  "meshes": [
    {
      "name": "NAU Island Impostor Kit Fixture Mesh",
      "primitives": [
        {
          "attributes": {
            "POSITION": 0
          },
          "indices": 1,
          "material": 0,
          "mode": 4
        }
      ]
    }
  ],
  "materials": [
    {
      "name": "NAU Island Impostor Kit Fixture Material",
      "pbrMetallicRoughness": {
        "baseColorFactor": [0.22, 0.34, 0.28, 1.0],
        "metallicFactor": 0.0,
        "roughnessFactor": 0.88
      }
    }
  ],
  "buffers": [
    {
      "uri": "data:application/octet-stream;base64,",
      "byteLength": 44
    }
  ],
  "bufferViews": [
    {
      "buffer": 0,
      "byteOffset": 0,
      "byteLength": 36,
      "target": 34962
    },
    {
      "buffer": 0,
      "byteOffset": 36,
      "byteLength": 6,
      "target": 34963
    }
  ],
  "accessors": [
    {
      "bufferView": 0,
      "byteOffset": 0,
      "componentType": 5126,
      "count": 3,
      "type": "VEC3",
      "min": [-1.0, 0.0, 0.0],
      "max": [1.0, 0.0, 2.0]
    },
    {
      "bufferView": 1,
      "byteOffset": 0,
      "componentType": 5123,
      "count": 3,
      "type": "SCALAR",
      "min": [0],
      "max": [2]
    }
  ]
}
