{
  "asset": {
    "version": "2.0",
    "generator": "NAU Engine self-authored island terrain fixture generator",
    "copyright": "Self-authored for NAU Engine; no third-party assets."
  },
  "extras": {
    "nau": {
      "schema": "nau_visual_asset_fixture.v1",
      "asset_kind": "island_terrain",
      "asset_label": "island terrain kit",
      "residency": "stream_window",
      "license": "self_authored_no_third_party"
    }
  },
  "scenes": [
    {
      "nodes": [
        0
      ]
    }
  ],
  "scene": 0,
  "nodes": [
    {
      "name": "Self Authored Island Terrain Kit",
      "children": [
        1,
        2,
        3,
        4,
        5,
        6,
        7,
        8,
        9,
        10
      ]
    },
    {
      "name": "terrain relief surface",
      "mesh": 0
    },
    {
      "name": "authored cliff skirt",
      "mesh": 1
    },
    {
      "name": "authored underside rock mass",
      "mesh": 2
    },
    {
      "name": "readable landing soil strip",
      "mesh": 3,
      "translation": [
        0.55,
        0.04,
        -0.25
      ]
    },
    {
      "name": "terrace contour ledge",
      "mesh": 4
    },
    {
      "name": "forked erosion gully north",
      "mesh": 5
    },
    {
      "name": "forked erosion gully south",
      "mesh": 6
    },
    {
      "name": "curved landing path stone spine",
      "mesh": 7
    },
    {
      "name": "embedded path stone cap a",
      "mesh": 8
    },
    {
      "name": "embedded path stone cap b",
      "mesh": 9
    }
  ],
  "meshes": [
    {
      "name": "Authored terrain relief surface",
      "primitives": [
        {
          "attributes": {
            "POSITION": 0,
            "NORMAL": 1,
            "TEXCOORD_0": 2
          },
          "indices": 3,
          "material": 0,
          "mode": 4
        }
      ]
    },
    {
      "name": "authored cliff skirt",
      "primitives": [
        {
          "attributes": {
            "POSITION": 4,
            "NORMAL": 5,
            "TEXCOORD_0": 6
          },
          "indices": 7,
          "material": 1,
          "mode": 4
        }
      ]
    },
    {
      "name": "authored underside rock mass",
      "primitives": [
        {
          "attributes": {
            "POSITION": 8,
            "NORMAL": 9,
            "TEXCOORD_0": 10
          },
          "indices": 11,
          "material": 2,
          "mode": 4
        }
      ]
    },
    {
      "name": "readable landing soil strip",
      "primitives": [
        {
          "attributes": {
            "POSITION": 12,
            "NORMAL": 13,
            "TEXCOORD_0": 14
          },
          "indices": 15,
          "material": 3,
          "mode": 4
        }
      ]
    },
    {
      "name": "terrace contour ledge",
      "primitives": [
        {
          "attributes": {
            "POSITION": 16,
            "NORMAL": 17,
            "TEXCOORD_0": 18
          },
          "indices": 19,
          "material": 4,
          "mode": 4
        }
      ]
    },
    {
      "name": "forked erosion gully north",
      "primitives": [
        {
          "attributes": {
            "POSITION": 20,
            "NORMAL": 21,
            "TEXCOORD_0": 22
          },
          "indices": 23,
          "material": 5,
          "mode": 4
        }
      ]
    },
    {
      "name": "forked erosion gully south",
      "primitives": [
        {
          "attributes": {
            "POSITION": 24,
            "NORMAL": 25,
            "TEXCOORD_0": 26
          },
          "indices": 27,
          "material": 5,
          "mode": 4
        }
      ]
    },
    {
      "name": "curved landing path stone spine",
      "primitives": [
        {
          "attributes": {
            "POSITION": 28,
            "NORMAL": 29,
            "TEXCOORD_0": 30
          },
          "indices": 31,
          "material": 6,
          "mode": 4
        }
      ]
    },
    {
      "name": "embedded path stone cap a",
      "primitives": [
        {
          "attributes": {
            "POSITION": 32,
            "NORMAL": 33,
            "TEXCOORD_0": 34
          },
          "indices": 35,
          "material": 6,
          "mode": 4
        }
      ]
    },
    {
      "name": "embedded path stone cap b",
      "primitives": [
        {
          "attributes": {
            "POSITION": 36,
            "NORMAL": 37,
            "TEXCOORD_0": 38
          },
          "indices": 39,
          "material": 6,
          "mode": 4
        }
      ]
    }
  ],
  "materials": [
    {
      "name": "mossy terrain blend",
      "pbrMetallicRoughness": {
        "baseColorFactor": [
          0.22,
          0.48,
          0.19,
          1
        ],
        "metallicFactor": 0,
        "roughnessFactor": 0.9
      }
    },
    {
      "name": "exposed stratified cliff",
      "pbrMetallicRoughness": {
        "baseColorFactor": [
          0.38,
          0.31,
          0.25,
          1
        ],
        "metallicFactor": 0,
        "roughnessFactor": 0.86
      }
    },
    {
      "name": "mineral edge highlights",
      "pbrMetallicRoughness": {
        "baseColorFactor": [
          0.62,
          0.57,
          0.47,
          1
        ],
        "metallicFactor": 0,
        "roughnessFactor": 0.78
      }
    },
    {
      "name": "landing path soil",
      "pbrMetallicRoughness": {
        "baseColorFactor": [
          0.28,
          0.22,
          0.16,
          1
        ],
        "metallicFactor": 0,
        "roughnessFactor": 0.93
      }
    },
    {
      "name": "terrace scree contour",
      "pbrMetallicRoughness": {
        "baseColorFactor": [
          0.46,
          0.39,
          0.29,
          1
        ],
        "metallicFactor": 0,
        "roughnessFactor": 0.91
      }
    },
    {
      "name": "erosion gully shadow soil",
      "pbrMetallicRoughness": {
        "baseColorFactor": [
          0.13,
          0.11,
          0.08,
          1
        ],
        "metallicFactor": 0,
        "roughnessFactor": 0.96
      }
    },
    {
      "name": "embedded path stone caps",
      "pbrMetallicRoughness": {
        "baseColorFactor": [
          0.52,
          0.47,
          0.37,
          1
        ],
        "metallicFactor": 0,
        "roughnessFactor": 0.84
      }
    }
  ],
  "buffers": [
    {
      "uri": "data:application/octet-stream;base64,",
      "byteLength": 16396
    }
  ],
  "bufferViews": [
    {
      "buffer": 0,
      "byteOffset": 0,
      "byteLength": 1452,
      "target": 34962
    },
    {
      "buffer": 0,
      "byteOffset": 1452,
      "byteLength": 1452,
      "target": 34962
    },
    {
      "buffer": 0,
      "byteOffset": 2904,
      "byteLength": 968,
      "target": 34962
    },
    {
      "buffer": 0,
      "byteOffset": 3872,
      "byteLength": 1200,
      "target": 34963
    },
    {
      "buffer": 0,
      "byteOffset": 5072,
      "byteLength": 768,
      "target": 34962
    },
    {
      "buffer": 0,
      "byteOffset": 5840,
      "byteLength": 768,
      "target": 34962
    },
    {
      "buffer": 0,
      "byteOffset": 6608,
      "byteLength": 512,
      "target": 34962
    },
    {
      "buffer": 0,
      "byteOffset": 7120,
      "byteLength": 384,
      "target": 34963
    },
    {
      "buffer": 0,
      "byteOffset": 7504,
      "byteLength": 672,
      "target": 34962
    },
    {
      "buffer": 0,
      "byteOffset": 8176,
      "byteLength": 672,
      "target": 34962
    },
    {
      "buffer": 0,
      "byteOffset": 8848,
      "byteLength": 448,
      "target": 34962
    },
    {
      "buffer": 0,
      "byteOffset": 9296,
      "byteLength": 336,
      "target": 34963
    },
    {
      "buffer": 0,
      "byteOffset": 9632,
      "byteLength": 192,
      "target": 34962
    },
    {
      "buffer": 0,
      "byteOffset": 9824,
      "byteLength": 192,
      "target": 34962
    },
    {
      "buffer": 0,
      "byteOffset": 10016,
      "byteLength": 128,
      "target": 34962
    },
    {
      "buffer": 0,
      "byteOffset": 10144,
      "byteLength": 108,
      "target": 34963
    },
    {
      "buffer": 0,
      "byteOffset": 10252,
      "byteLength": 720,
      "target": 34962
    },
    {
      "buffer": 0,
      "byteOffset": 10972,
      "byteLength": 720,
      "target": 34962
    },
    {
      "buffer": 0,
      "byteOffset": 11692,
      "byteLength": 480,
      "target": 34962
    },
    {
      "buffer": 0,
      "byteOffset": 12172,
      "byteLength": 360,
      "target": 34963
    },
    {
      "buffer": 0,
      "byteOffset": 12532,
      "byteLength": 96,
      "target": 34962
    },
    {
      "buffer": 0,
      "byteOffset": 12628,
      "byteLength": 96,
      "target": 34962
    },
    {
      "buffer": 0,
      "byteOffset": 12724,
      "byteLength": 64,
      "target": 34962
    },
    {
      "buffer": 0,
      "byteOffset": 12788,
      "byteLength": 72,
      "target": 34963
    },
    {
      "buffer": 0,
      "byteOffset": 12860,
      "byteLength": 96,
      "target": 34962
    },
    {
      "buffer": 0,
      "byteOffset": 12956,
      "byteLength": 96,
      "target": 34962
    },
    {
      "buffer": 0,
      "byteOffset": 13052,
      "byteLength": 64,
      "target": 34962
    },
    {
      "buffer": 0,
      "byteOffset": 13116,
      "byteLength": 72,
      "target": 34963
    },
    {
      "buffer": 0,
      "byteOffset": 13188,
      "byteLength": 96,
      "target": 34962
    },
    {
      "buffer": 0,
      "byteOffset": 13284,
      "byteLength": 96,
      "target": 34962
    },
    {
      "buffer": 0,
      "byteOffset": 13380,
      "byteLength": 64,
      "target": 34962
    },
    {
      "buffer": 0,
      "byteOffset": 13444,
      "byteLength": 72,
      "target": 34963
    },
    {
      "buffer": 0,
      "byteOffset": 13516,
      "byteLength": 432,
      "target": 34962
    },
    {
      "buffer": 0,
      "byteOffset": 13948,
      "byteLength": 432,
      "target": 34962
    },
    {
      "buffer": 0,
      "byteOffset": 14380,
      "byteLength": 288,
      "target": 34962
    },
    {
      "buffer": 0,
      "byteOffset": 14668,
      "byteLength": 288,
      "target": 34963
    },
    {
      "buffer": 0,
      "byteOffset": 14956,
      "byteLength": 432,
      "target": 34962
    },
    {
      "buffer": 0,
      "byteOffset": 15388,
      "byteLength": 432,
      "target": 34962
    },
    {
      "buffer": 0,
      "byteOffset": 15820,
      "byteLength": 288,
      "target": 34962
    },
    {
      "buffer": 0,
      "byteOffset": 16108,
      "byteLength": 288,
      "target": 34963
    }
  ],
  "accessors": [
    {
      "bufferView": 0,
      "byteOffset": 0,
      "componentType": 5126,
      "count": 121,
      "type": "VEC3",
      "min": [
        -2.7,
        -0.2502909620521185,
        -2.1
      ],
      "max": [
        2.7,
        0.2625371748959452,
        2.1
      ]
    },
    {
      "bufferView": 1,
      "byteOffset": 0,
      "componentType": 5126,
      "count": 121,
      "type": "VEC3",
      "min": [
        -1,
        -1,
        -1
      ],
      "max": [
        1,
        1,
        1
      ]
    },
    {
      "bufferView": 2,
      "byteOffset": 0,
      "componentType": 5126,
      "count": 121,
      "type": "VEC2",
      "min": [
        0,
        0
      ],
      "max": [
        1,
        1
      ]
    },
    {
      "bufferView": 3,
      "byteOffset": 0,
      "componentType": 5123,
      "count": 600,
      "type": "SCALAR",
      "min": [
        0
      ],
      "max": [
        120
      ]
    },
    {
      "bufferView": 4,
      "byteOffset": 0,
      "componentType": 5126,
      "count": 64,
      "type": "VEC3",
      "min": [
        -3.075431471313324,
        -1.53,
        -2.5370416094310806
      ],
      "max": [
        3.1826558788874895,
        -0.020000000000000004,
        2.1333724967908663
      ]
    },
    {
      "bufferView": 5,
      "byteOffset": 0,
      "componentType": 5126,
      "count": 64,
      "type": "VEC3",
      "min": [
        -1,
        -1,
        -1
      ],
      "max": [
        1,
        1,
        1
      ]
    },
    {
      "bufferView": 6,
      "byteOffset": 0,
      "componentType": 5126,
      "count": 64,
      "type": "VEC2",
      "min": [
        0,
        0
      ],
      "max": [
        1,
        1
      ]
    },
    {
      "bufferView": 7,
      "byteOffset": 0,
      "componentType": 5123,
      "count": 192,
      "type": "SCALAR",
      "min": [
        0
      ],
      "max": [
        63
      ]
    },
    {
      "bufferView": 8,
      "byteOffset": 0,
      "componentType": 5126,
      "count": 56,
      "type": "VEC3",
      "min": [
        -2.177516833113755,
        -2.23,
        -1.7027947711037767
      ],
      "max": [
        2.2499455127573715,
        -1.082005767025454,
        1.4479052815197118
      ]
    },
    {
      "bufferView": 9,
      "byteOffset": 0,
      "componentType": 5126,
      "count": 56,
      "type": "VEC3",
      "min": [
        -1,
        -1,
        -1
      ],
      "max": [
        1,
        1,
        1
      ]
    },
    {
      "bufferView": 10,
      "byteOffset": 0,
      "componentType": 5126,
      "count": 56,
      "type": "VEC2",
      "min": [
        0,
        0
      ],
      "max": [
        1,
        1
      ]
    },
    {
      "bufferView": 11,
      "byteOffset": 0,
      "componentType": 5123,
      "count": 168,
      "type": "SCALAR",
      "min": [
        0
      ],
      "max": [
        55
      ]
    },
    {
      "bufferView": 12,
      "byteOffset": 0,
      "componentType": 5126,
      "count": 16,
      "type": "VEC3",
      "min": [
        -0.9,
        0.16267949192431122,
        -0.275
      ],
      "max": [
        0.9,
        0.20732050807568878,
        0.275
      ]
    },
    {
      "bufferView": 13,
      "byteOffset": 0,
      "componentType": 5126,
      "count": 16,
      "type": "VEC3",
      "min": [
        -1,
        -1,
        -1
      ],
      "max": [
        1,
        1,
        1
      ]
    },
    {
      "bufferView": 14,
      "byteOffset": 0,
      "componentType": 5126,
      "count": 16,
      "type": "VEC2",
      "min": [
        0,
        0
      ],
      "max": [
        1,
        1
      ]
    },
    {
      "bufferView": 15,
      "byteOffset": 0,
      "componentType": 5123,
      "count": 54,
      "type": "SCALAR",
      "min": [
        0
      ],
      "max": [
        15
      ]
    },
    {
      "bufferView": 16,
      "byteOffset": 0,
      "componentType": 5126,
      "count": 60,
      "type": "VEC3",
      "min": [
        -2.4777970995697167,
        -0.23606656813208501,
        -2.01740443825202
      ],
      "max": [
        2.5599904691211965,
        0.1595617516294619,
        1.7019267134371348
      ]
    },
    {
      "bufferView": 17,
      "byteOffset": 0,
      "componentType": 5126,
      "count": 60,
      "type": "VEC3",
      "min": [
        -1,
        -1,
        -1
      ],
      "max": [
        1,
        1,
        1
      ]
    },
    {
      "bufferView": 18,
      "byteOffset": 0,
      "componentType": 5126,
      "count": 60,
      "type": "VEC2",
      "min": [
        0,
        0
      ],
      "max": [
        1,
        1
      ]
    },
    {
      "bufferView": 19,
      "byteOffset": 0,
      "componentType": 5123,
      "count": 180,
      "type": "SCALAR",
      "min": [
        0
      ],
      "max": [
        59
      ]
    },
    {
      "bufferView": 20,
      "byteOffset": 0,
      "componentType": 5126,
      "count": 8,
      "type": "VEC3",
      "min": [
        -1.917849174093585,
        0.07500932844617411,
        -0.7726549485567765
      ],
      "max": [
        -0.3321508259064149,
        0.2149906715538259,
        -0.16734505144322348
      ]
    },
    {
      "bufferView": 21,
      "byteOffset": 0,
      "componentType": 5126,
      "count": 8,
      "type": "VEC3",
      "min": [
        -1,
        -1,
        -1
      ],
      "max": [
        1,
        1,
        1
      ]
    },
    {
      "bufferView": 22,
      "byteOffset": 0,
      "componentType": 5126,
      "count": 8,
      "type": "VEC2",
      "min": [
        0,
        0
      ],
      "max": [
        1,
        1
      ]
    },
    {
      "bufferView": 23,
      "byteOffset": 0,
      "componentType": 5123,
      "count": 36,
      "type": "SCALAR",
      "min": [
        0
      ],
      "max": [
        7
      ]
    },
    {
      "bufferView": 24,
      "byteOffset": 0,
      "componentType": 5126,
      "count": 8,
      "type": "VEC3",
      "min": [
        -1.7496580658155254,
        0.07200380363723406,
        -0.007250423093594055
      ],
      "max": [
        -0.17034193418447452,
        0.18799619636276593,
        0.3872504230935941
      ]
    },
    {
      "bufferView": 25,
      "byteOffset": 0,
      "componentType": 5126,
      "count": 8,
      "type": "VEC3",
      "min": [
        -1,
        -1,
        -1
      ],
      "max": [
        1,
        1,
        1
      ]
    },
    {
      "bufferView": 26,
      "byteOffset": 0,
      "componentType": 5126,
      "count": 8,
      "type": "VEC2",
      "min": [
        0,
        0
      ],
      "max": [
        1,
        1
      ]
    },
    {
      "bufferView": 27,
      "byteOffset": 0,
      "componentType": 5123,
      "count": 36,
      "type": "SCALAR",
      "min": [
        0
      ],
      "max": [
        7
      ]
    },
    {
      "bufferView": 28,
      "byteOffset": 0,
      "componentType": 5126,
      "count": 8,
      "type": "VEC3",
      "min": [
        -0.7554083600709397,
        0.12500417037366873,
        -0.5037130301223506
      ],
      "max": [
        1.13540836007094,
        0.2949958296263313,
        0.013713030122350575
      ]
    },
    {
      "bufferView": 29,
      "byteOffset": 0,
      "componentType": 5126,
      "count": 8,
      "type": "VEC3",
      "min": [
        -1,
        -1,
        -1
      ],
      "max": [
        1,
        1,
        1
      ]
    },
    {
      "bufferView": 30,
      "byteOffset": 0,
      "componentType": 5126,
      "count": 8,
      "type": "VEC2",
      "min": [
        0,
        0
      ],
      "max": [
        1,
        1
      ]
    },
    {
      "bufferView": 31,
      "byteOffset": 0,
      "componentType": 5123,
      "count": 36,
      "type": "SCALAR",
      "min": [
        0
      ],
      "max": [
        7
      ]
    },
    {
      "bufferView": 32,
      "byteOffset": 0,
      "componentType": 5126,
      "count": 36,
      "type": "VEC3",
      "min": [
        -0.5815453167666293,
        0.215,
        -0.4284150374711418
      ],
      "max": [
        -0.23419532450348243,
        0.28500000000000003,
        -0.21261717171718553
      ]
    },
    {
      "bufferView": 33,
      "byteOffset": 0,
      "componentType": 5126,
      "count": 36,
      "type": "VEC3",
      "min": [
        -1,
        -1,
        -1
      ],
      "max": [
        1,
        1,
        1
      ]
    },
    {
      "bufferView": 34,
      "byteOffset": 0,
      "componentType": 5126,
      "count": 36,
      "type": "VEC2",
      "min": [
        0,
        0
      ],
      "max": [
        1,
        1
      ]
    },
    {
      "bufferView": 35,
      "byteOffset": 0,
      "componentType": 5123,
      "count": 144,
      "type": "SCALAR",
      "min": [
        0
      ],
      "max": [
        35
      ]
    },
    {
      "bufferView": 36,
      "byteOffset": 0,
      "componentType": 5126,
      "count": 36,
      "type": "VEC3",
      "min": [
        0.25460921491003363,
        0.205,
        -0.27034586455928483
      ],
      "max": [
        0.5672242079468658,
        0.275,
        -0.09051430976432126
      ]
    },
    {
      "bufferView": 37,
      "byteOffset": 0,
      "componentType": 5126,
      "count": 36,
      "type": "VEC3",
      "min": [
        -1,
        -1,
        -1
      ],
      "max": [
        1,
        1,
        1
      ]
    },
    {
      "bufferView": 38,
      "byteOffset": 0,
      "componentType": 5126,
      "count": 36,
      "type": "VEC2",
      "min": [
        0,
        0
      ],
      "max": [
        1,
        1
      ]
    },
    {
      "bufferView": 39,
      "byteOffset": 0,
      "componentType": 5123,
      "count": 144,
      "type": "SCALAR",
      "min": [
        0
      ],
      "max": [
        35
      ]
    }
  ]
}
