{
  "asset": {
    "version": "2.0",
    "generator": "NAU Engine self-authored route marker fixture generator",
    "copyright": "Self-authored for NAU Engine; no third-party assets."
  },
  "extras": {
    "nau": {
      "schema": "nau_visual_asset_fixture.v1",
      "asset_kind": "route_marker",
      "asset_label": "route marker kit",
      "residency": "always",
      "license": "self_authored_no_third_party"
    }
  },
  "scenes": [
    {
      "nodes": [
        0
      ]
    }
  ],
  "scene": 0,
  "nodes": [
    {
      "name": "Self Authored Route Marker Kit",
      "children": [
        1,
        2,
        3,
        4,
        5,
        6,
        7
      ]
    },
    {
      "name": "route gate ring",
      "mesh": 0
    },
    {
      "name": "inner readable route gate ring",
      "mesh": 1
    },
    {
      "name": "left support mast",
      "mesh": 2
    },
    {
      "name": "right support mast",
      "mesh": 3
    },
    {
      "name": "objective shard",
      "mesh": 4
    },
    {
      "name": "stacked cairn base",
      "mesh": 5
    },
    {
      "name": "weathered route pennant cloth",
      "mesh": 6
    }
  ],
  "meshes": [
    {
      "name": "route gate ring",
      "primitives": [
        {
          "attributes": {
            "POSITION": 0,
            "NORMAL": 1,
            "TEXCOORD_0": 2
          },
          "indices": 3,
          "material": 0,
          "mode": 4
        }
      ]
    },
    {
      "name": "inner readable route gate ring",
      "primitives": [
        {
          "attributes": {
            "POSITION": 4,
            "NORMAL": 5,
            "TEXCOORD_0": 6
          },
          "indices": 7,
          "material": 2,
          "mode": 4
        }
      ]
    },
    {
      "name": "left support mast",
      "primitives": [
        {
          "attributes": {
            "POSITION": 8,
            "NORMAL": 9,
            "TEXCOORD_0": 10
          },
          "indices": 11,
          "material": 1,
          "mode": 4
        }
      ]
    },
    {
      "name": "right support mast",
      "primitives": [
        {
          "attributes": {
            "POSITION": 12,
            "NORMAL": 13,
            "TEXCOORD_0": 14
          },
          "indices": 15,
          "material": 1,
          "mode": 4
        }
      ]
    },
    {
      "name": "objective shard",
      "primitives": [
        {
          "attributes": {
            "POSITION": 16,
            "NORMAL": 17,
            "TEXCOORD_0": 18
          },
          "indices": 19,
          "material": 2,
          "mode": 4
        }
      ]
    },
    {
      "name": "stacked cairn base",
      "primitives": [
        {
          "attributes": {
            "POSITION": 20,
            "NORMAL": 21,
            "TEXCOORD_0": 22
          },
          "indices": 23,
          "material": 3,
          "mode": 4
        }
      ]
    },
    {
      "name": "weathered route pennant cloth",
      "primitives": [
        {
          "attributes": {
            "POSITION": 24,
            "NORMAL": 25,
            "TEXCOORD_0": 26
          },
          "indices": 27,
          "material": 4,
          "mode": 4
        }
      ]
    }
  ],
  "materials": [
    {
      "name": "glowing route ring",
      "pbrMetallicRoughness": {
        "baseColorFactor": [
          1,
          0.42,
          0.52,
          1
        ],
        "metallicFactor": 0,
        "roughnessFactor": 0.36
      },
      "emissiveFactor": [
        1.4,
        0.2,
        0.28
      ]
    },
    {
      "name": "weathered route mast",
      "pbrMetallicRoughness": {
        "baseColorFactor": [
          0.33,
          0.24,
          0.15,
          1
        ],
        "metallicFactor": 0,
        "roughnessFactor": 0.82
      }
    },
    {
      "name": "cool objective shard",
      "pbrMetallicRoughness": {
        "baseColorFactor": [
          0.36,
          0.76,
          1,
          1
        ],
        "metallicFactor": 0,
        "roughnessFactor": 0.45
      },
      "emissiveFactor": [
        0.1,
        0.35,
        0.7
      ]
    },
    {
      "name": "stone base cairn",
      "pbrMetallicRoughness": {
        "baseColorFactor": [
          0.27,
          0.26,
          0.24,
          1
        ],
        "metallicFactor": 0,
        "roughnessFactor": 0.88
      }
    },
    {
      "name": "weathered route pennant",
      "pbrMetallicRoughness": {
        "baseColorFactor": [
          0.82,
          0.28,
          0.2,
          0.82
        ],
        "metallicFactor": 0,
        "roughnessFactor": 0.76
      },
      "alphaMode": "BLEND",
      "doubleSided": true
    }
  ],
  "buffers": [
    {
      "uri": "data:application/octet-stream;base64,",
      "byteLength": 15804
    }
  ],
  "bufferViews": [
    {
      "buffer": 0,
      "byteOffset": 0,
      "byteLength": 1536,
      "target": 34962
    },
    {
      "buffer": 0,
      "byteOffset": 1536,
      "byteLength": 1536,
      "target": 34962
    },
    {
      "buffer": 0,
      "byteOffset": 3072,
      "byteLength": 1024,
      "target": 34962
    },
    {
      "buffer": 0,
      "byteOffset": 4096,
      "byteLength": 1536,
      "target": 34963
    },
    {
      "buffer": 0,
      "byteOffset": 5632,
      "byteLength": 1344,
      "target": 34962
    },
    {
      "buffer": 0,
      "byteOffset": 6976,
      "byteLength": 1344,
      "target": 34962
    },
    {
      "buffer": 0,
      "byteOffset": 8320,
      "byteLength": 896,
      "target": 34962
    },
    {
      "buffer": 0,
      "byteOffset": 9216,
      "byteLength": 1344,
      "target": 34963
    },
    {
      "buffer": 0,
      "byteOffset": 10560,
      "byteLength": 96,
      "target": 34962
    },
    {
      "buffer": 0,
      "byteOffset": 10656,
      "byteLength": 96,
      "target": 34962
    },
    {
      "buffer": 0,
      "byteOffset": 10752,
      "byteLength": 64,
      "target": 34962
    },
    {
      "buffer": 0,
      "byteOffset": 10816,
      "byteLength": 72,
      "target": 34963
    },
    {
      "buffer": 0,
      "byteOffset": 10888,
      "byteLength": 96,
      "target": 34962
    },
    {
      "buffer": 0,
      "byteOffset": 10984,
      "byteLength": 96,
      "target": 34962
    },
    {
      "buffer": 0,
      "byteOffset": 11080,
      "byteLength": 64,
      "target": 34962
    },
    {
      "buffer": 0,
      "byteOffset": 11144,
      "byteLength": 72,
      "target": 34963
    },
    {
      "buffer": 0,
      "byteOffset": 11216,
      "byteLength": 648,
      "target": 34962
    },
    {
      "buffer": 0,
      "byteOffset": 11864,
      "byteLength": 648,
      "target": 34962
    },
    {
      "buffer": 0,
      "byteOffset": 12512,
      "byteLength": 432,
      "target": 34962
    },
    {
      "buffer": 0,
      "byteOffset": 12944,
      "byteLength": 480,
      "target": 34963
    },
    {
      "buffer": 0,
      "byteOffset": 13424,
      "byteLength": 660,
      "target": 34962
    },
    {
      "buffer": 0,
      "byteOffset": 14084,
      "byteLength": 660,
      "target": 34962
    },
    {
      "buffer": 0,
      "byteOffset": 14744,
      "byteLength": 440,
      "target": 34962
    },
    {
      "buffer": 0,
      "byteOffset": 15184,
      "byteLength": 480,
      "target": 34963
    },
    {
      "buffer": 0,
      "byteOffset": 15664,
      "byteLength": 48,
      "target": 34962
    },
    {
      "buffer": 0,
      "byteOffset": 15712,
      "byteLength": 48,
      "target": 34962
    },
    {
      "buffer": 0,
      "byteOffset": 15760,
      "byteLength": 32,
      "target": 34962
    },
    {
      "buffer": 0,
      "byteOffset": 15792,
      "byteLength": 12,
      "target": 34963
    }
  ],
  "accessors": [
    {
      "bufferView": 0,
      "byteOffset": 0,
      "componentType": 5126,
      "count": 128,
      "type": "VEC3",
      "min": [
        -0.72,
        -0.72,
        -0.035
      ],
      "max": [
        0.72,
        0.72,
        0.035
      ]
    },
    {
      "bufferView": 1,
      "byteOffset": 0,
      "componentType": 5126,
      "count": 128,
      "type": "VEC3",
      "min": [
        -1,
        -1,
        -1
      ],
      "max": [
        1,
        1,
        1
      ]
    },
    {
      "bufferView": 2,
      "byteOffset": 0,
      "componentType": 5126,
      "count": 128,
      "type": "VEC2",
      "min": [
        0,
        0
      ],
      "max": [
        1,
        1
      ]
    },
    {
      "bufferView": 3,
      "byteOffset": 0,
      "componentType": 5123,
      "count": 768,
      "type": "SCALAR",
      "min": [
        0
      ],
      "max": [
        127
      ]
    },
    {
      "bufferView": 4,
      "byteOffset": 0,
      "componentType": 5126,
      "count": 112,
      "type": "VEC3",
      "min": [
        -0.48,
        -0.48,
        -0.018
      ],
      "max": [
        0.48,
        0.48,
        0.018
      ]
    },
    {
      "bufferView": 5,
      "byteOffset": 0,
      "componentType": 5126,
      "count": 112,
      "type": "VEC3",
      "min": [
        -1,
        -1,
        -1
      ],
      "max": [
        1,
        1,
        1
      ]
    },
    {
      "bufferView": 6,
      "byteOffset": 0,
      "componentType": 5126,
      "count": 112,
      "type": "VEC2",
      "min": [
        0,
        0
      ],
      "max": [
        1,
        1
      ]
    },
    {
      "bufferView": 7,
      "byteOffset": 0,
      "componentType": 5123,
      "count": 672,
      "type": "SCALAR",
      "min": [
        0
      ],
      "max": [
        111
      ]
    },
    {
      "bufferView": 8,
      "byteOffset": 0,
      "componentType": 5126,
      "count": 8,
      "type": "VEC3",
      "min": [
        -0.655,
        -0.85,
        -0.05500000000000001
      ],
      "max": [
        -0.585,
        0.62,
        0.015000000000000003
      ]
    },
    {
      "bufferView": 9,
      "byteOffset": 0,
      "componentType": 5126,
      "count": 8,
      "type": "VEC3",
      "min": [
        -1,
        -1,
        -1
      ],
      "max": [
        1,
        1,
        1
      ]
    },
    {
      "bufferView": 10,
      "byteOffset": 0,
      "componentType": 5126,
      "count": 8,
      "type": "VEC2",
      "min": [
        0,
        0
      ],
      "max": [
        1,
        1
      ]
    },
    {
      "bufferView": 11,
      "byteOffset": 0,
      "componentType": 5123,
      "count": 36,
      "type": "SCALAR",
      "min": [
        0
      ],
      "max": [
        7
      ]
    },
    {
      "bufferView": 12,
      "byteOffset": 0,
      "componentType": 5126,
      "count": 8,
      "type": "VEC3",
      "min": [
        0.585,
        -0.85,
        -0.05500000000000001
      ],
      "max": [
        0.655,
        0.62,
        0.015000000000000003
      ]
    },
    {
      "bufferView": 13,
      "byteOffset": 0,
      "componentType": 5126,
      "count": 8,
      "type": "VEC3",
      "min": [
        -1,
        -1,
        -1
      ],
      "max": [
        1,
        1,
        1
      ]
    },
    {
      "bufferView": 14,
      "byteOffset": 0,
      "componentType": 5126,
      "count": 8,
      "type": "VEC2",
      "min": [
        0,
        0
      ],
      "max": [
        1,
        1
      ]
    },
    {
      "bufferView": 15,
      "byteOffset": 0,
      "componentType": 5123,
      "count": 36,
      "type": "SCALAR",
      "min": [
        0
      ],
      "max": [
        7
      ]
    },
    {
      "bufferView": 16,
      "byteOffset": 0,
      "componentType": 5126,
      "count": 54,
      "type": "VEC3",
      "min": [
        -0.11283833616426679,
        -0.31000000000000005,
        -0.09355153467555613
      ],
      "max": [
        0.12242879708853502,
        0.37,
        0.062110369719453315
      ]
    },
    {
      "bufferView": 17,
      "byteOffset": 0,
      "componentType": 5126,
      "count": 54,
      "type": "VEC3",
      "min": [
        -1,
        -1,
        -1
      ],
      "max": [
        1,
        1,
        1
      ]
    },
    {
      "bufferView": 18,
      "byteOffset": 0,
      "componentType": 5126,
      "count": 54,
      "type": "VEC2",
      "min": [
        0,
        0
      ],
      "max": [
        1,
        1
      ]
    },
    {
      "bufferView": 19,
      "byteOffset": 0,
      "componentType": 5123,
      "count": 240,
      "type": "SCALAR",
      "min": [
        0
      ],
      "max": [
        53
      ]
    },
    {
      "bufferView": 20,
      "byteOffset": 0,
      "componentType": 5126,
      "count": 55,
      "type": "VEC3",
      "min": [
        -0.4450829788098938,
        -1.1,
        -0.33606159585976725
      ],
      "max": [
        0.5149170211901062,
        -0.74,
        0.3487168394256835
      ]
    },
    {
      "bufferView": 21,
      "byteOffset": 0,
      "componentType": 5126,
      "count": 55,
      "type": "VEC3",
      "min": [
        -1,
        -1,
        -1
      ],
      "max": [
        1,
        1,
        1
      ]
    },
    {
      "bufferView": 22,
      "byteOffset": 0,
      "componentType": 5126,
      "count": 55,
      "type": "VEC2",
      "min": [
        0,
        0
      ],
      "max": [
        1,
        1
      ]
    },
    {
      "bufferView": 23,
      "byteOffset": 0,
      "componentType": 5123,
      "count": 240,
      "type": "SCALAR",
      "min": [
        0
      ],
      "max": [
        54
      ]
    },
    {
      "bufferView": 24,
      "byteOffset": 0,
      "componentType": 5126,
      "count": 4,
      "type": "VEC3",
      "min": [
        0.6340471013023798,
        0.35,
        -0.29732909000241725
      ],
      "max": [
        0.8828299692726056,
        0.35,
        0.3460705405574
      ]
    },
    {
      "bufferView": 25,
      "byteOffset": 0,
      "componentType": 5126,
      "count": 4,
      "type": "VEC3",
      "min": [
        -1,
        -1,
        -1
      ],
      "max": [
        1,
        1,
        1
      ]
    },
    {
      "bufferView": 26,
      "byteOffset": 0,
      "componentType": 5126,
      "count": 4,
      "type": "VEC2",
      "min": [
        0,
        0
      ],
      "max": [
        1,
        1
      ]
    },
    {
      "bufferView": 27,
      "byteOffset": 0,
      "componentType": 5123,
      "count": 6,
      "type": "SCALAR",
      "min": [
        0
      ],
      "max": [
        3
      ]
    }
  ]
}
