{
  "asset": {
    "version": "2.0",
    "generator": "NAU Engine self-authored route marker fixture generator",
    "copyright": "Self-authored for NAU Engine; no third-party assets."
  },
  "scenes": [
    {
      "nodes": [
        0
      ]
    }
  ],
  "scene": 0,
  "nodes": [
    {
      "name": "Self Authored Route Marker Kit",
      "children": [
        1,
        2,
        3,
        4,
        5
      ]
    },
    {
      "name": "route gate ring",
      "mesh": 0
    },
    {
      "name": "left support mast",
      "mesh": 1
    },
    {
      "name": "right support mast",
      "mesh": 2
    },
    {
      "name": "objective shard",
      "mesh": 3
    },
    {
      "name": "stacked cairn base",
      "mesh": 4
    }
  ],
  "meshes": [
    {
      "name": "route gate ring",
      "primitives": [
        {
          "attributes": {
            "POSITION": 0,
            "NORMAL": 1,
            "TEXCOORD_0": 2
          },
          "indices": 3,
          "material": 0,
          "mode": 4
        }
      ]
    },
    {
      "name": "left support mast",
      "primitives": [
        {
          "attributes": {
            "POSITION": 4,
            "NORMAL": 5,
            "TEXCOORD_0": 6
          },
          "indices": 7,
          "material": 1,
          "mode": 4
        }
      ]
    },
    {
      "name": "right support mast",
      "primitives": [
        {
          "attributes": {
            "POSITION": 8,
            "NORMAL": 9,
            "TEXCOORD_0": 10
          },
          "indices": 11,
          "material": 1,
          "mode": 4
        }
      ]
    },
    {
      "name": "objective shard",
      "primitives": [
        {
          "attributes": {
            "POSITION": 12,
            "NORMAL": 13,
            "TEXCOORD_0": 14
          },
          "indices": 15,
          "material": 2,
          "mode": 4
        }
      ]
    },
    {
      "name": "stacked cairn base",
      "primitives": [
        {
          "attributes": {
            "POSITION": 16,
            "NORMAL": 17,
            "TEXCOORD_0": 18
          },
          "indices": 19,
          "material": 3,
          "mode": 4
        }
      ]
    }
  ],
  "materials": [
    {
      "name": "glowing route ring",
      "pbrMetallicRoughness": {
        "baseColorFactor": [
          1,
          0.42,
          0.52,
          1
        ],
        "metallicFactor": 0,
        "roughnessFactor": 0.36
      },
      "emissiveFactor": [
        1.4,
        0.2,
        0.28
      ]
    },
    {
      "name": "weathered route mast",
      "pbrMetallicRoughness": {
        "baseColorFactor": [
          0.33,
          0.24,
          0.15,
          1
        ],
        "metallicFactor": 0,
        "roughnessFactor": 0.82
      }
    },
    {
      "name": "cool objective shard",
      "pbrMetallicRoughness": {
        "baseColorFactor": [
          0.36,
          0.76,
          1,
          1
        ],
        "metallicFactor": 0,
        "roughnessFactor": 0.45
      },
      "emissiveFactor": [
        0.1,
        0.35,
        0.7
      ]
    },
    {
      "name": "stone base cairn",
      "pbrMetallicRoughness": {
        "baseColorFactor": [
          0.27,
          0.26,
          0.24,
          1
        ],
        "metallicFactor": 0,
        "roughnessFactor": 0.88
      }
    }
  ],
  "buffers": [
    {
      "uri": "data:application/octet-stream;base64,",
      "byteLength": 10736
    }
  ],
  "bufferViews": [
    {
      "buffer": 0,
      "byteOffset": 0,
      "byteLength": 1536,
      "target": 34962
    },
    {
      "buffer": 0,
      "byteOffset": 1536,
      "byteLength": 1536,
      "target": 34962
    },
    {
      "buffer": 0,
      "byteOffset": 3072,
      "byteLength": 1024,
      "target": 34962
    },
    {
      "buffer": 0,
      "byteOffset": 4096,
      "byteLength": 1536,
      "target": 34963
    },
    {
      "buffer": 0,
      "byteOffset": 5632,
      "byteLength": 96,
      "target": 34962
    },
    {
      "buffer": 0,
      "byteOffset": 5728,
      "byteLength": 96,
      "target": 34962
    },
    {
      "buffer": 0,
      "byteOffset": 5824,
      "byteLength": 64,
      "target": 34962
    },
    {
      "buffer": 0,
      "byteOffset": 5888,
      "byteLength": 72,
      "target": 34963
    },
    {
      "buffer": 0,
      "byteOffset": 5960,
      "byteLength": 96,
      "target": 34962
    },
    {
      "buffer": 0,
      "byteOffset": 6056,
      "byteLength": 96,
      "target": 34962
    },
    {
      "buffer": 0,
      "byteOffset": 6152,
      "byteLength": 64,
      "target": 34962
    },
    {
      "buffer": 0,
      "byteOffset": 6216,
      "byteLength": 72,
      "target": 34963
    },
    {
      "buffer": 0,
      "byteOffset": 6288,
      "byteLength": 648,
      "target": 34962
    },
    {
      "buffer": 0,
      "byteOffset": 6936,
      "byteLength": 648,
      "target": 34962
    },
    {
      "buffer": 0,
      "byteOffset": 7584,
      "byteLength": 432,
      "target": 34962
    },
    {
      "buffer": 0,
      "byteOffset": 8016,
      "byteLength": 480,
      "target": 34963
    },
    {
      "buffer": 0,
      "byteOffset": 8496,
      "byteLength": 660,
      "target": 34962
    },
    {
      "buffer": 0,
      "byteOffset": 9156,
      "byteLength": 660,
      "target": 34962
    },
    {
      "buffer": 0,
      "byteOffset": 9816,
      "byteLength": 440,
      "target": 34962
    },
    {
      "buffer": 0,
      "byteOffset": 10256,
      "byteLength": 480,
      "target": 34963
    }
  ],
  "accessors": [
    {
      "bufferView": 0,
      "byteOffset": 0,
      "componentType": 5126,
      "count": 128,
      "type": "VEC3",
      "min": [
        -0.72,
        -0.72,
        -0.035
      ],
      "max": [
        0.72,
        0.72,
        0.035
      ]
    },
    {
      "bufferView": 1,
      "byteOffset": 0,
      "componentType": 5126,
      "count": 128,
      "type": "VEC3",
      "min": [
        -1,
        -1,
        -1
      ],
      "max": [
        1,
        1,
        1
      ]
    },
    {
      "bufferView": 2,
      "byteOffset": 0,
      "componentType": 5126,
      "count": 128,
      "type": "VEC2",
      "min": [
        0,
        0
      ],
      "max": [
        1,
        1
      ]
    },
    {
      "bufferView": 3,
      "byteOffset": 0,
      "componentType": 5123,
      "count": 768,
      "type": "SCALAR",
      "min": [
        0
      ],
      "max": [
        127
      ]
    },
    {
      "bufferView": 4,
      "byteOffset": 0,
      "componentType": 5126,
      "count": 8,
      "type": "VEC3",
      "min": [
        -0.655,
        -0.85,
        -0.05500000000000001
      ],
      "max": [
        -0.585,
        0.62,
        0.015000000000000003
      ]
    },
    {
      "bufferView": 5,
      "byteOffset": 0,
      "componentType": 5126,
      "count": 8,
      "type": "VEC3",
      "min": [
        -1,
        -1,
        -1
      ],
      "max": [
        1,
        1,
        1
      ]
    },
    {
      "bufferView": 6,
      "byteOffset": 0,
      "componentType": 5126,
      "count": 8,
      "type": "VEC2",
      "min": [
        0,
        0
      ],
      "max": [
        1,
        1
      ]
    },
    {
      "bufferView": 7,
      "byteOffset": 0,
      "componentType": 5123,
      "count": 36,
      "type": "SCALAR",
      "min": [
        0
      ],
      "max": [
        7
      ]
    },
    {
      "bufferView": 8,
      "byteOffset": 0,
      "componentType": 5126,
      "count": 8,
      "type": "VEC3",
      "min": [
        0.585,
        -0.85,
        -0.05500000000000001
      ],
      "max": [
        0.655,
        0.62,
        0.015000000000000003
      ]
    },
    {
      "bufferView": 9,
      "byteOffset": 0,
      "componentType": 5126,
      "count": 8,
      "type": "VEC3",
      "min": [
        -1,
        -1,
        -1
      ],
      "max": [
        1,
        1,
        1
      ]
    },
    {
      "bufferView": 10,
      "byteOffset": 0,
      "componentType": 5126,
      "count": 8,
      "type": "VEC2",
      "min": [
        0,
        0
      ],
      "max": [
        1,
        1
      ]
    },
    {
      "bufferView": 11,
      "byteOffset": 0,
      "componentType": 5123,
      "count": 36,
      "type": "SCALAR",
      "min": [
        0
      ],
      "max": [
        7
      ]
    },
    {
      "bufferView": 12,
      "byteOffset": 0,
      "componentType": 5126,
      "count": 54,
      "type": "VEC3",
      "min": [
        -0.11283833616426679,
        -0.31000000000000005,
        -0.09355153467555613
      ],
      "max": [
        0.12242879708853502,
        0.37,
        0.062110369719453315
      ]
    },
    {
      "bufferView": 13,
      "byteOffset": 0,
      "componentType": 5126,
      "count": 54,
      "type": "VEC3",
      "min": [
        -1,
        -1,
        -1
      ],
      "max": [
        1,
        1,
        1
      ]
    },
    {
      "bufferView": 14,
      "byteOffset": 0,
      "componentType": 5126,
      "count": 54,
      "type": "VEC2",
      "min": [
        0,
        0
      ],
      "max": [
        1,
        1
      ]
    },
    {
      "bufferView": 15,
      "byteOffset": 0,
      "componentType": 5123,
      "count": 240,
      "type": "SCALAR",
      "min": [
        0
      ],
      "max": [
        53
      ]
    },
    {
      "bufferView": 16,
      "byteOffset": 0,
      "componentType": 5126,
      "count": 55,
      "type": "VEC3",
      "min": [
        -0.4450829788098938,
        -1.1,
        -0.33606159585976725
      ],
      "max": [
        0.5149170211901062,
        -0.74,
        0.3487168394256835
      ]
    },
    {
      "bufferView": 17,
      "byteOffset": 0,
      "componentType": 5126,
      "count": 55,
      "type": "VEC3",
      "min": [
        -1,
        -1,
        -1
      ],
      "max": [
        1,
        1,
        1
      ]
    },
    {
      "bufferView": 18,
      "byteOffset": 0,
      "componentType": 5126,
      "count": 55,
      "type": "VEC2",
      "min": [
        0,
        0
      ],
      "max": [
        1,
        1
      ]
    },
    {
      "bufferView": 19,
      "byteOffset": 0,
      "componentType": 5123,
      "count": 240,
      "type": "SCALAR",
      "min": [
        0
      ],
      "max": [
        54
      ]
    }
  ]
}
