{
  "asset": {
    "version": "2.0",
    "generator": "NAU Engine self-authored weather layer fixture generator",
    "copyright": "Self-authored for NAU Engine; no third-party assets."
  },
  "scenes": [
    {
      "nodes": [
        0
      ]
    }
  ],
  "scene": 0,
  "nodes": [
    {
      "name": "Self Authored Weather Layer Kit",
      "children": [
        1,
        2,
        3,
        4,
        5,
        6
      ]
    },
    {
      "name": "cloud bank lobe center",
      "mesh": 0
    },
    {
      "name": "cloud bank lobe left",
      "mesh": 1
    },
    {
      "name": "cloud bank lobe right",
      "mesh": 2
    },
    {
      "name": "shadow belly lobe",
      "mesh": 3
    },
    {
      "name": "high cirrus slash a",
      "mesh": 4
    },
    {
      "name": "high cirrus slash b",
      "mesh": 5
    }
  ],
  "meshes": [
    {
      "name": "cloud bank lobe center",
      "primitives": [
        {
          "attributes": {
            "POSITION": 0,
            "NORMAL": 1,
            "TEXCOORD_0": 2
          },
          "indices": 3,
          "material": 0,
          "mode": 4
        }
      ]
    },
    {
      "name": "cloud bank lobe left",
      "primitives": [
        {
          "attributes": {
            "POSITION": 4,
            "NORMAL": 5,
            "TEXCOORD_0": 6
          },
          "indices": 7,
          "material": 0,
          "mode": 4
        }
      ]
    },
    {
      "name": "cloud bank lobe right",
      "primitives": [
        {
          "attributes": {
            "POSITION": 8,
            "NORMAL": 9,
            "TEXCOORD_0": 10
          },
          "indices": 11,
          "material": 0,
          "mode": 4
        }
      ]
    },
    {
      "name": "shadow belly lobe",
      "primitives": [
        {
          "attributes": {
            "POSITION": 12,
            "NORMAL": 13,
            "TEXCOORD_0": 14
          },
          "indices": 15,
          "material": 1,
          "mode": 4
        }
      ]
    },
    {
      "name": "high cirrus slash a",
      "primitives": [
        {
          "attributes": {
            "POSITION": 16,
            "NORMAL": 17,
            "TEXCOORD_0": 18
          },
          "indices": 19,
          "material": 2,
          "mode": 4
        }
      ]
    },
    {
      "name": "high cirrus slash b",
      "primitives": [
        {
          "attributes": {
            "POSITION": 20,
            "NORMAL": 21,
            "TEXCOORD_0": 22
          },
          "indices": 23,
          "material": 2,
          "mode": 4
        }
      ]
    }
  ],
  "materials": [
    {
      "name": "soft cloud lobe",
      "pbrMetallicRoughness": {
        "baseColorFactor": [
          0.78,
          0.84,
          0.88,
          0.72
        ],
        "metallicFactor": 0,
        "roughnessFactor": 0.62
      },
      "alphaMode": "BLEND",
      "doubleSided": true
    },
    {
      "name": "shadowed cloud belly",
      "pbrMetallicRoughness": {
        "baseColorFactor": [
          0.48,
          0.56,
          0.62,
          0.68
        ],
        "metallicFactor": 0,
        "roughnessFactor": 0.75
      },
      "alphaMode": "BLEND",
      "doubleSided": true
    },
    {
      "name": "high cirrus veil",
      "pbrMetallicRoughness": {
        "baseColorFactor": [
          0.9,
          0.95,
          1,
          0.36
        ],
        "metallicFactor": 0,
        "roughnessFactor": 0.48
      },
      "alphaMode": "BLEND",
      "doubleSided": true
    }
  ],
  "buffers": [
    {
      "uri": "data:application/octet-stream;base64,",
      "byteLength": 11160
    }
  ],
  "bufferViews": [
    {
      "buffer": 0,
      "byteOffset": 0,
      "byteLength": 936,
      "target": 34962
    },
    {
      "buffer": 0,
      "byteOffset": 936,
      "byteLength": 936,
      "target": 34962
    },
    {
      "buffer": 0,
      "byteOffset": 1872,
      "byteLength": 624,
      "target": 34962
    },
    {
      "buffer": 0,
      "byteOffset": 2496,
      "byteLength": 720,
      "target": 34963
    },
    {
      "buffer": 0,
      "byteOffset": 3216,
      "byteLength": 792,
      "target": 34962
    },
    {
      "buffer": 0,
      "byteOffset": 4008,
      "byteLength": 792,
      "target": 34962
    },
    {
      "buffer": 0,
      "byteOffset": 4800,
      "byteLength": 528,
      "target": 34962
    },
    {
      "buffer": 0,
      "byteOffset": 5328,
      "byteLength": 600,
      "target": 34963
    },
    {
      "buffer": 0,
      "byteOffset": 5928,
      "byteLength": 792,
      "target": 34962
    },
    {
      "buffer": 0,
      "byteOffset": 6720,
      "byteLength": 792,
      "target": 34962
    },
    {
      "buffer": 0,
      "byteOffset": 7512,
      "byteLength": 528,
      "target": 34962
    },
    {
      "buffer": 0,
      "byteOffset": 8040,
      "byteLength": 600,
      "target": 34963
    },
    {
      "buffer": 0,
      "byteOffset": 8640,
      "byteLength": 660,
      "target": 34962
    },
    {
      "buffer": 0,
      "byteOffset": 9300,
      "byteLength": 660,
      "target": 34962
    },
    {
      "buffer": 0,
      "byteOffset": 9960,
      "byteLength": 440,
      "target": 34962
    },
    {
      "buffer": 0,
      "byteOffset": 10400,
      "byteLength": 480,
      "target": 34963
    },
    {
      "buffer": 0,
      "byteOffset": 10880,
      "byteLength": 48,
      "target": 34962
    },
    {
      "buffer": 0,
      "byteOffset": 10928,
      "byteLength": 48,
      "target": 34962
    },
    {
      "buffer": 0,
      "byteOffset": 10976,
      "byteLength": 32,
      "target": 34962
    },
    {
      "buffer": 0,
      "byteOffset": 11008,
      "byteLength": 12,
      "target": 34963
    },
    {
      "buffer": 0,
      "byteOffset": 11020,
      "byteLength": 48,
      "target": 34962
    },
    {
      "buffer": 0,
      "byteOffset": 11068,
      "byteLength": 48,
      "target": 34962
    },
    {
      "buffer": 0,
      "byteOffset": 11116,
      "byteLength": 32,
      "target": 34962
    },
    {
      "buffer": 0,
      "byteOffset": 11148,
      "byteLength": 12,
      "target": 34963
    }
  ],
  "accessors": [
    {
      "bufferView": 0,
      "byteOffset": 0,
      "componentType": 5126,
      "count": 78,
      "type": "VEC3",
      "min": [
        -1.128383361642668,
        -0.34,
        -0.5700243937355599
      ],
      "max": [
        1.22428797088535,
        0.34,
        0.6363553653257633
      ]
    },
    {
      "bufferView": 1,
      "byteOffset": 0,
      "componentType": 5126,
      "count": 78,
      "type": "VEC3",
      "min": [
        -1,
        -1,
        -1
      ],
      "max": [
        1,
        1,
        1
      ]
    },
    {
      "bufferView": 2,
      "byteOffset": 0,
      "componentType": 5126,
      "count": 78,
      "type": "VEC2",
      "min": [
        0,
        0
      ],
      "max": [
        1,
        1
      ]
    },
    {
      "bufferView": 3,
      "byteOffset": 0,
      "componentType": 5123,
      "count": 360,
      "type": "SCALAR",
      "min": [
        0
      ],
      "max": [
        77
      ]
    },
    {
      "bufferView": 4,
      "byteOffset": 0,
      "componentType": 5126,
      "count": 66,
      "type": "VEC3",
      "min": [
        -1.4994172382641784,
        -0.32,
        -0.31481676370579875
      ],
      "max": [
        -0.16623681649830147,
        0.24000000000000002,
        0.48968458070768156
      ]
    },
    {
      "bufferView": 5,
      "byteOffset": 0,
      "componentType": 5126,
      "count": 66,
      "type": "VEC3",
      "min": [
        -1,
        -1,
        -1
      ],
      "max": [
        1,
        1,
        1
      ]
    },
    {
      "bufferView": 6,
      "byteOffset": 0,
      "componentType": 5126,
      "count": 66,
      "type": "VEC2",
      "min": [
        0,
        0
      ],
      "max": [
        1,
        1
      ]
    },
    {
      "bufferView": 7,
      "byteOffset": 0,
      "componentType": 5123,
      "count": 300,
      "type": "SCALAR",
      "min": [
        0
      ],
      "max": [
        65
      ]
    },
    {
      "bufferView": 8,
      "byteOffset": 0,
      "componentType": 5126,
      "count": 66,
      "type": "VEC3",
      "min": [
        0.2241635936536881,
        -0.32,
        -0.5324183602492082
      ],
      "max": [
        1.6749775820459658,
        0.27999999999999997,
        0.3487021598226989
      ]
    },
    {
      "bufferView": 9,
      "byteOffset": 0,
      "componentType": 5126,
      "count": 66,
      "type": "VEC3",
      "min": [
        -1,
        -1,
        -1
      ],
      "max": [
        1,
        1,
        1
      ]
    },
    {
      "bufferView": 10,
      "byteOffset": 0,
      "componentType": 5126,
      "count": 66,
      "type": "VEC2",
      "min": [
        0,
        0
      ],
      "max": [
        1,
        1
      ]
    },
    {
      "bufferView": 11,
      "byteOffset": 0,
      "componentType": 5123,
      "count": 300,
      "type": "SCALAR",
      "min": [
        0
      ],
      "max": [
        65
      ]
    },
    {
      "bufferView": 12,
      "byteOffset": 0,
      "componentType": 5126,
      "count": 55,
      "type": "VEC3",
      "min": [
        -0.7008933955612482,
        -0.42,
        -0.44420822920554
      ],
      "max": [
        1.1991066044387517,
        -0.06,
        0.5628188815083581
      ]
    },
    {
      "bufferView": 13,
      "byteOffset": 0,
      "componentType": 5126,
      "count": 55,
      "type": "VEC3",
      "min": [
        -1,
        -1,
        -1
      ],
      "max": [
        1,
        1,
        1
      ]
    },
    {
      "bufferView": 14,
      "byteOffset": 0,
      "componentType": 5126,
      "count": 55,
      "type": "VEC2",
      "min": [
        0,
        0
      ],
      "max": [
        1,
        1
      ]
    },
    {
      "bufferView": 15,
      "byteOffset": 0,
      "componentType": 5123,
      "count": 240,
      "type": "SCALAR",
      "min": [
        0
      ],
      "max": [
        54
      ]
    },
    {
      "bufferView": 16,
      "byteOffset": 0,
      "componentType": 5126,
      "count": 4,
      "type": "VEC3",
      "min": [
        -1.1515883787901355,
        0.22,
        -0.5662746765135247
      ],
      "max": [
        0.8779986262689095,
        0.22,
        0.3188215030029766
      ]
    },
    {
      "bufferView": 17,
      "byteOffset": 0,
      "componentType": 5126,
      "count": 4,
      "type": "VEC3",
      "min": [
        -1,
        -1,
        -1
      ],
      "max": [
        1,
        1,
        1
      ]
    },
    {
      "bufferView": 18,
      "byteOffset": 0,
      "componentType": 5126,
      "count": 4,
      "type": "VEC2",
      "min": [
        0,
        0
      ],
      "max": [
        1,
        1
      ]
    },
    {
      "bufferView": 19,
      "byteOffset": 0,
      "componentType": 5123,
      "count": 6,
      "type": "SCALAR",
      "min": [
        0
      ],
      "max": [
        3
      ]
    },
    {
      "bufferView": 20,
      "byteOffset": 0,
      "componentType": 5126,
      "count": 4,
      "type": "VEC3",
      "min": [
        -0.5433017330410423,
        0.3,
        -0.05580253404877585
      ],
      "max": [
        1.1833676918012836,
        0.3,
        0.3791563775309671
      ]
    },
    {
      "bufferView": 21,
      "byteOffset": 0,
      "componentType": 5126,
      "count": 4,
      "type": "VEC3",
      "min": [
        -1,
        -1,
        -1
      ],
      "max": [
        1,
        1,
        1
      ]
    },
    {
      "bufferView": 22,
      "byteOffset": 0,
      "componentType": 5126,
      "count": 4,
      "type": "VEC2",
      "min": [
        0,
        0
      ],
      "max": [
        1,
        1
      ]
    },
    {
      "bufferView": 23,
      "byteOffset": 0,
      "componentType": 5123,
      "count": 6,
      "type": "SCALAR",
      "min": [
        0
      ],
      "max": [
        3
      ]
    }
  ]
}
