{
  "asset": {
    "version": "2.0",
    "generator": "NAU Engine self-authored weather layer fixture generator",
    "copyright": "Self-authored for NAU Engine; no third-party assets."
  },
  "extras": {
    "nau": {
      "schema": "nau_visual_asset_fixture.v1",
      "asset_kind": "weather_layer",
      "asset_label": "weather cloud layer kit",
      "residency": "weather",
      "license": "self_authored_no_third_party"
    }
  },
  "scenes": [
    {
      "nodes": [
        0
      ]
    }
  ],
  "scene": 0,
  "nodes": [
    {
      "name": "Self Authored Weather Layer Kit",
      "children": [
        1,
        2,
        3,
        4,
        5,
        6,
        7,
        8,
        9,
        10
      ]
    },
    {
      "name": "cloud bank lobe center",
      "mesh": 0
    },
    {
      "name": "cloud bank lobe left",
      "mesh": 1
    },
    {
      "name": "cloud bank lobe right",
      "mesh": 2
    },
    {
      "name": "cloud bank upper depth lobe",
      "mesh": 3
    },
    {
      "name": "shadow belly lobe",
      "mesh": 4
    },
    {
      "name": "high cirrus slash a",
      "mesh": 5
    },
    {
      "name": "high cirrus slash b",
      "mesh": 6
    },
    {
      "name": "feathered cloud edge wisp north",
      "mesh": 7
    },
    {
      "name": "feathered cloud edge wisp south",
      "mesh": 8
    },
    {
      "name": "thin trailing cloud wisp",
      "mesh": 9
    }
  ],
  "meshes": [
    {
      "name": "cloud bank lobe center",
      "primitives": [
        {
          "attributes": {
            "POSITION": 0,
            "NORMAL": 1,
            "TEXCOORD_0": 2
          },
          "indices": 3,
          "material": 0,
          "mode": 4
        }
      ]
    },
    {
      "name": "cloud bank lobe left",
      "primitives": [
        {
          "attributes": {
            "POSITION": 4,
            "NORMAL": 5,
            "TEXCOORD_0": 6
          },
          "indices": 7,
          "material": 0,
          "mode": 4
        }
      ]
    },
    {
      "name": "cloud bank lobe right",
      "primitives": [
        {
          "attributes": {
            "POSITION": 8,
            "NORMAL": 9,
            "TEXCOORD_0": 10
          },
          "indices": 11,
          "material": 0,
          "mode": 4
        }
      ]
    },
    {
      "name": "cloud bank upper depth lobe",
      "primitives": [
        {
          "attributes": {
            "POSITION": 12,
            "NORMAL": 13,
            "TEXCOORD_0": 14
          },
          "indices": 15,
          "material": 0,
          "mode": 4
        }
      ]
    },
    {
      "name": "shadow belly lobe",
      "primitives": [
        {
          "attributes": {
            "POSITION": 16,
            "NORMAL": 17,
            "TEXCOORD_0": 18
          },
          "indices": 19,
          "material": 1,
          "mode": 4
        }
      ]
    },
    {
      "name": "high cirrus slash a",
      "primitives": [
        {
          "attributes": {
            "POSITION": 20,
            "NORMAL": 21,
            "TEXCOORD_0": 22
          },
          "indices": 23,
          "material": 2,
          "mode": 4
        }
      ]
    },
    {
      "name": "high cirrus slash b",
      "primitives": [
        {
          "attributes": {
            "POSITION": 24,
            "NORMAL": 25,
            "TEXCOORD_0": 26
          },
          "indices": 27,
          "material": 2,
          "mode": 4
        }
      ]
    },
    {
      "name": "feathered cloud edge wisp north",
      "primitives": [
        {
          "attributes": {
            "POSITION": 28,
            "NORMAL": 29,
            "TEXCOORD_0": 30
          },
          "indices": 31,
          "material": 3,
          "mode": 4
        }
      ]
    },
    {
      "name": "feathered cloud edge wisp south",
      "primitives": [
        {
          "attributes": {
            "POSITION": 32,
            "NORMAL": 33,
            "TEXCOORD_0": 34
          },
          "indices": 35,
          "material": 3,
          "mode": 4
        }
      ]
    },
    {
      "name": "thin trailing cloud wisp",
      "primitives": [
        {
          "attributes": {
            "POSITION": 36,
            "NORMAL": 37,
            "TEXCOORD_0": 38
          },
          "indices": 39,
          "material": 3,
          "mode": 4
        }
      ]
    }
  ],
  "materials": [
    {
      "name": "soft cloud lobe",
      "pbrMetallicRoughness": {
        "baseColorFactor": [
          0.78,
          0.84,
          0.88,
          0.72
        ],
        "metallicFactor": 0,
        "roughnessFactor": 0.62
      },
      "alphaMode": "BLEND",
      "doubleSided": true
    },
    {
      "name": "shadowed cloud belly",
      "pbrMetallicRoughness": {
        "baseColorFactor": [
          0.48,
          0.56,
          0.62,
          0.68
        ],
        "metallicFactor": 0,
        "roughnessFactor": 0.75
      },
      "alphaMode": "BLEND",
      "doubleSided": true
    },
    {
      "name": "high cirrus veil",
      "pbrMetallicRoughness": {
        "baseColorFactor": [
          0.9,
          0.95,
          1,
          0.36
        ],
        "metallicFactor": 0,
        "roughnessFactor": 0.48
      },
      "alphaMode": "BLEND",
      "doubleSided": true
    },
    {
      "name": "feathered cloud edge wisp",
      "pbrMetallicRoughness": {
        "baseColorFactor": [
          0.86,
          0.91,
          0.95,
          0.44
        ],
        "metallicFactor": 0,
        "roughnessFactor": 0.58
      },
      "alphaMode": "BLEND",
      "doubleSided": true
    }
  ],
  "buffers": [
    {
      "uri": "data:application/octet-stream;base64,",
      "byteLength": 13820
    }
  ],
  "bufferViews": [
    {
      "buffer": 0,
      "byteOffset": 0,
      "byteLength": 936,
      "target": 34962
    },
    {
      "buffer": 0,
      "byteOffset": 936,
      "byteLength": 936,
      "target": 34962
    },
    {
      "buffer": 0,
      "byteOffset": 1872,
      "byteLength": 624,
      "target": 34962
    },
    {
      "buffer": 0,
      "byteOffset": 2496,
      "byteLength": 720,
      "target": 34963
    },
    {
      "buffer": 0,
      "byteOffset": 3216,
      "byteLength": 792,
      "target": 34962
    },
    {
      "buffer": 0,
      "byteOffset": 4008,
      "byteLength": 792,
      "target": 34962
    },
    {
      "buffer": 0,
      "byteOffset": 4800,
      "byteLength": 528,
      "target": 34962
    },
    {
      "buffer": 0,
      "byteOffset": 5328,
      "byteLength": 600,
      "target": 34963
    },
    {
      "buffer": 0,
      "byteOffset": 5928,
      "byteLength": 792,
      "target": 34962
    },
    {
      "buffer": 0,
      "byteOffset": 6720,
      "byteLength": 792,
      "target": 34962
    },
    {
      "buffer": 0,
      "byteOffset": 7512,
      "byteLength": 528,
      "target": 34962
    },
    {
      "buffer": 0,
      "byteOffset": 8040,
      "byteLength": 600,
      "target": 34963
    },
    {
      "buffer": 0,
      "byteOffset": 8640,
      "byteLength": 660,
      "target": 34962
    },
    {
      "buffer": 0,
      "byteOffset": 9300,
      "byteLength": 660,
      "target": 34962
    },
    {
      "buffer": 0,
      "byteOffset": 9960,
      "byteLength": 440,
      "target": 34962
    },
    {
      "buffer": 0,
      "byteOffset": 10400,
      "byteLength": 480,
      "target": 34963
    },
    {
      "buffer": 0,
      "byteOffset": 10880,
      "byteLength": 660,
      "target": 34962
    },
    {
      "buffer": 0,
      "byteOffset": 11540,
      "byteLength": 660,
      "target": 34962
    },
    {
      "buffer": 0,
      "byteOffset": 12200,
      "byteLength": 440,
      "target": 34962
    },
    {
      "buffer": 0,
      "byteOffset": 12640,
      "byteLength": 480,
      "target": 34963
    },
    {
      "buffer": 0,
      "byteOffset": 13120,
      "byteLength": 48,
      "target": 34962
    },
    {
      "buffer": 0,
      "byteOffset": 13168,
      "byteLength": 48,
      "target": 34962
    },
    {
      "buffer": 0,
      "byteOffset": 13216,
      "byteLength": 32,
      "target": 34962
    },
    {
      "buffer": 0,
      "byteOffset": 13248,
      "byteLength": 12,
      "target": 34963
    },
    {
      "buffer": 0,
      "byteOffset": 13260,
      "byteLength": 48,
      "target": 34962
    },
    {
      "buffer": 0,
      "byteOffset": 13308,
      "byteLength": 48,
      "target": 34962
    },
    {
      "buffer": 0,
      "byteOffset": 13356,
      "byteLength": 32,
      "target": 34962
    },
    {
      "buffer": 0,
      "byteOffset": 13388,
      "byteLength": 12,
      "target": 34963
    },
    {
      "buffer": 0,
      "byteOffset": 13400,
      "byteLength": 48,
      "target": 34962
    },
    {
      "buffer": 0,
      "byteOffset": 13448,
      "byteLength": 48,
      "target": 34962
    },
    {
      "buffer": 0,
      "byteOffset": 13496,
      "byteLength": 32,
      "target": 34962
    },
    {
      "buffer": 0,
      "byteOffset": 13528,
      "byteLength": 12,
      "target": 34963
    },
    {
      "buffer": 0,
      "byteOffset": 13540,
      "byteLength": 48,
      "target": 34962
    },
    {
      "buffer": 0,
      "byteOffset": 13588,
      "byteLength": 48,
      "target": 34962
    },
    {
      "buffer": 0,
      "byteOffset": 13636,
      "byteLength": 32,
      "target": 34962
    },
    {
      "buffer": 0,
      "byteOffset": 13668,
      "byteLength": 12,
      "target": 34963
    },
    {
      "buffer": 0,
      "byteOffset": 13680,
      "byteLength": 48,
      "target": 34962
    },
    {
      "buffer": 0,
      "byteOffset": 13728,
      "byteLength": 48,
      "target": 34962
    },
    {
      "buffer": 0,
      "byteOffset": 13776,
      "byteLength": 32,
      "target": 34962
    },
    {
      "buffer": 0,
      "byteOffset": 13808,
      "byteLength": 12,
      "target": 34963
    }
  ],
  "accessors": [
    {
      "bufferView": 0,
      "byteOffset": 0,
      "componentType": 5126,
      "count": 78,
      "type": "VEC3",
      "min": [
        -1.128383361642668,
        -0.34,
        -0.5700243937355599
      ],
      "max": [
        1.22428797088535,
        0.34,
        0.6363553653257633
      ]
    },
    {
      "bufferView": 1,
      "byteOffset": 0,
      "componentType": 5126,
      "count": 78,
      "type": "VEC3",
      "min": [
        -1,
        -1,
        -1
      ],
      "max": [
        1,
        1,
        1
      ]
    },
    {
      "bufferView": 2,
      "byteOffset": 0,
      "componentType": 5126,
      "count": 78,
      "type": "VEC2",
      "min": [
        0,
        0
      ],
      "max": [
        1,
        1
      ]
    },
    {
      "bufferView": 3,
      "byteOffset": 0,
      "componentType": 5123,
      "count": 360,
      "type": "SCALAR",
      "min": [
        0
      ],
      "max": [
        77
      ]
    },
    {
      "bufferView": 4,
      "byteOffset": 0,
      "componentType": 5126,
      "count": 66,
      "type": "VEC3",
      "min": [
        -1.4994172382641784,
        -0.32,
        -0.31481676370579875
      ],
      "max": [
        -0.16623681649830147,
        0.24000000000000002,
        0.48968458070768156
      ]
    },
    {
      "bufferView": 5,
      "byteOffset": 0,
      "componentType": 5126,
      "count": 66,
      "type": "VEC3",
      "min": [
        -1,
        -1,
        -1
      ],
      "max": [
        1,
        1,
        1
      ]
    },
    {
      "bufferView": 6,
      "byteOffset": 0,
      "componentType": 5126,
      "count": 66,
      "type": "VEC2",
      "min": [
        0,
        0
      ],
      "max": [
        1,
        1
      ]
    },
    {
      "bufferView": 7,
      "byteOffset": 0,
      "componentType": 5123,
      "count": 300,
      "type": "SCALAR",
      "min": [
        0
      ],
      "max": [
        65
      ]
    },
    {
      "bufferView": 8,
      "byteOffset": 0,
      "componentType": 5126,
      "count": 66,
      "type": "VEC3",
      "min": [
        0.2241635936536881,
        -0.32,
        -0.5324183602492082
      ],
      "max": [
        1.6749775820459658,
        0.27999999999999997,
        0.3487021598226989
      ]
    },
    {
      "bufferView": 9,
      "byteOffset": 0,
      "componentType": 5126,
      "count": 66,
      "type": "VEC3",
      "min": [
        -1,
        -1,
        -1
      ],
      "max": [
        1,
        1,
        1
      ]
    },
    {
      "bufferView": 10,
      "byteOffset": 0,
      "componentType": 5126,
      "count": 66,
      "type": "VEC2",
      "min": [
        0,
        0
      ],
      "max": [
        1,
        1
      ]
    },
    {
      "bufferView": 11,
      "byteOffset": 0,
      "componentType": 5123,
      "count": 300,
      "type": "SCALAR",
      "min": [
        0
      ],
      "max": [
        65
      ]
    },
    {
      "bufferView": 12,
      "byteOffset": 0,
      "componentType": 5126,
      "count": 55,
      "type": "VEC3",
      "min": [
        -0.7134439717465251,
        0.06,
        -0.1955982541962104
      ],
      "max": [
        0.5665560282534748,
        0.42,
        0.5697423499463521
      ]
    },
    {
      "bufferView": 13,
      "byteOffset": 0,
      "componentType": 5126,
      "count": 55,
      "type": "VEC3",
      "min": [
        -1,
        -1,
        -1
      ],
      "max": [
        1,
        1,
        1
      ]
    },
    {
      "bufferView": 14,
      "byteOffset": 0,
      "componentType": 5126,
      "count": 55,
      "type": "VEC2",
      "min": [
        0,
        0
      ],
      "max": [
        1,
        1
      ]
    },
    {
      "bufferView": 15,
      "byteOffset": 0,
      "componentType": 5123,
      "count": 240,
      "type": "SCALAR",
      "min": [
        0
      ],
      "max": [
        54
      ]
    },
    {
      "bufferView": 16,
      "byteOffset": 0,
      "componentType": 5126,
      "count": 55,
      "type": "VEC3",
      "min": [
        -0.7008933955612482,
        -0.42,
        -0.44420822920554
      ],
      "max": [
        1.1991066044387517,
        -0.06,
        0.5628188815083581
      ]
    },
    {
      "bufferView": 17,
      "byteOffset": 0,
      "componentType": 5126,
      "count": 55,
      "type": "VEC3",
      "min": [
        -1,
        -1,
        -1
      ],
      "max": [
        1,
        1,
        1
      ]
    },
    {
      "bufferView": 18,
      "byteOffset": 0,
      "componentType": 5126,
      "count": 55,
      "type": "VEC2",
      "min": [
        0,
        0
      ],
      "max": [
        1,
        1
      ]
    },
    {
      "bufferView": 19,
      "byteOffset": 0,
      "componentType": 5123,
      "count": 240,
      "type": "SCALAR",
      "min": [
        0
      ],
      "max": [
        54
      ]
    },
    {
      "bufferView": 20,
      "byteOffset": 0,
      "componentType": 5126,
      "count": 4,
      "type": "VEC3",
      "min": [
        -1.1515883787901355,
        0.22,
        -0.5662746765135247
      ],
      "max": [
        0.8779986262689095,
        0.22,
        0.3188215030029766
      ]
    },
    {
      "bufferView": 21,
      "byteOffset": 0,
      "componentType": 5126,
      "count": 4,
      "type": "VEC3",
      "min": [
        -1,
        -1,
        -1
      ],
      "max": [
        1,
        1,
        1
      ]
    },
    {
      "bufferView": 22,
      "byteOffset": 0,
      "componentType": 5126,
      "count": 4,
      "type": "VEC2",
      "min": [
        0,
        0
      ],
      "max": [
        1,
        1
      ]
    },
    {
      "bufferView": 23,
      "byteOffset": 0,
      "componentType": 5123,
      "count": 6,
      "type": "SCALAR",
      "min": [
        0
      ],
      "max": [
        3
      ]
    },
    {
      "bufferView": 24,
      "byteOffset": 0,
      "componentType": 5126,
      "count": 4,
      "type": "VEC3",
      "min": [
        -0.5433017330410423,
        0.3,
        -0.05580253404877585
      ],
      "max": [
        1.1833676918012836,
        0.3,
        0.3791563775309671
      ]
    },
    {
      "bufferView": 25,
      "byteOffset": 0,
      "componentType": 5126,
      "count": 4,
      "type": "VEC3",
      "min": [
        -1,
        -1,
        -1
      ],
      "max": [
        1,
        1,
        1
      ]
    },
    {
      "bufferView": 26,
      "byteOffset": 0,
      "componentType": 5126,
      "count": 4,
      "type": "VEC2",
      "min": [
        0,
        0
      ],
      "max": [
        1,
        1
      ]
    },
    {
      "bufferView": 27,
      "byteOffset": 0,
      "componentType": 5123,
      "count": 6,
      "type": "SCALAR",
      "min": [
        0
      ],
      "max": [
        3
      ]
    },
    {
      "bufferView": 28,
      "byteOffset": 0,
      "componentType": 5126,
      "count": 4,
      "type": "VEC3",
      "min": [
        -1.4369933914307782,
        0.04,
        -0.03903518411922073
      ],
      "max": [
        -0.5522299836780145,
        0.04,
        0.8327318216235504
      ]
    },
    {
      "bufferView": 29,
      "byteOffset": 0,
      "componentType": 5126,
      "count": 4,
      "type": "VEC3",
      "min": [
        -1,
        -1,
        -1
      ],
      "max": [
        1,
        1,
        1
      ]
    },
    {
      "bufferView": 30,
      "byteOffset": 0,
      "componentType": 5126,
      "count": 4,
      "type": "VEC2",
      "min": [
        0,
        0
      ],
      "max": [
        1,
        1
      ]
    },
    {
      "bufferView": 31,
      "byteOffset": 0,
      "componentType": 5123,
      "count": 6,
      "type": "SCALAR",
      "min": [
        0
      ],
      "max": [
        3
      ]
    },
    {
      "bufferView": 32,
      "byteOffset": 0,
      "componentType": 5126,
      "count": 4,
      "type": "VEC3",
      "min": [
        0.5950649162908712,
        0.02,
        -0.8784571863055591
      ],
      "max": [
        1.561327721918394,
        0.02,
        -0.23383621979824185
      ]
    },
    {
      "bufferView": 33,
      "byteOffset": 0,
      "componentType": 5126,
      "count": 4,
      "type": "VEC3",
      "min": [
        -1,
        -1,
        -1
      ],
      "max": [
        1,
        1,
        1
      ]
    },
    {
      "bufferView": 34,
      "byteOffset": 0,
      "componentType": 5126,
      "count": 4,
      "type": "VEC2",
      "min": [
        0,
        0
      ],
      "max": [
        1,
        1
      ]
    },
    {
      "bufferView": 35,
      "byteOffset": 0,
      "componentType": 5123,
      "count": 6,
      "type": "SCALAR",
      "min": [
        0
      ],
      "max": [
        3
      ]
    },
    {
      "bufferView": 36,
      "byteOffset": 0,
      "componentType": 5126,
      "count": 4,
      "type": "VEC3",
      "min": [
        -0.6630413281783223,
        -0.03,
        0.5276947245046814
      ],
      "max": [
        1.038125066296726,
        -0.03,
        0.8556814014476597
      ]
    },
    {
      "bufferView": 37,
      "byteOffset": 0,
      "componentType": 5126,
      "count": 4,
      "type": "VEC3",
      "min": [
        -1,
        -1,
        -1
      ],
      "max": [
        1,
        1,
        1
      ]
    },
    {
      "bufferView": 38,
      "byteOffset": 0,
      "componentType": 5126,
      "count": 4,
      "type": "VEC2",
      "min": [
        0,
        0
      ],
      "max": [
        1,
        1
      ]
    },
    {
      "bufferView": 39,
      "byteOffset": 0,
      "componentType": 5123,
      "count": 6,
      "type": "SCALAR",
      "min": [
        0
      ],
      "max": [
        3
      ]
    }
  ]
}
